<svg xmlns="http://www.w3.org/2000/svg" viewBox="0 0 94.58 12.46"><defs><style>.cls-1{fill:#fff;}.cls-2{fill:#aab5f7;}.cls-3{fill:#aab3ff;}</style></defs><title>logo</title><g id="Layer_2" data-name="Layer 2"><g id="Layer_1-2" data-name="Layer 1"><path class="cls-1" d="M16.28,5.06A4.17,4.17,0,0,1,20.71.7c2.35,0,3.9,1.21,4.19,3.07a.15.15,0,0,1-.14.16H23a.13.13,0,0,1-.13-.1,2,2,0,0,0-2.15-1.42,2.36,2.36,0,0,0-2.45,2.65,2.37,2.37,0,0,0,2.45,2.66A2,2,0,0,0,22.87,6.3.13.13,0,0,1,23,6.2h1.76a.14.14,0,0,1,.14.16c-.29,1.85-1.84,3.07-4.19,3.07A4.17,4.17,0,0,1,16.28,5.06Z"/><path class="cls-1" d="M30.19,8.19H27.26l-.25.9a.14.14,0,0,1-.14.1H25.16A.15.15,0,0,1,25,9l2.7-8a.14.14,0,0,1,.13-.09h1.72a.14.14,0,0,1,.13.09l2.71,8a.14.14,0,0,1-.13.19H30.58a.15.15,0,0,1-.14-.1Zm-.43-1.5L28.73,3l-1,3.67Z"/><path class="cls-1" d="M38.33,6.57,39.66,9a.14.14,0,0,1-.12.21H37.7a.16.16,0,0,1-.13-.07L36.32,6.9h-1V9.05a.14.14,0,0,1-.14.14H33.55a.15.15,0,0,1-.15-.14V.94h3.52a2.87,2.87,0,0,1,3,3A2.88,2.88,0,0,1,38.33,6.57Zm-3-1.22h1.31a1.33,1.33,0,0,0,1.32-1.43,1.33,1.33,0,0,0-1.32-1.43H35.31Z"/><path class="cls-1" d="M41.06.94H46a.14.14,0,0,1,.14.14V2.33a.14.14,0,0,1-.14.14H43V4.34h3a.15.15,0,0,1,.14.15V5.7a.14.14,0,0,1-.14.14H43V7.66h3a.14.14,0,0,1,.14.14V9.05a.14.14,0,0,1-.14.14H41.06Z"/><path class="cls-1" d="M50.62.94h1.63a.14.14,0,0,1,.14.14V4.27h2.85V1.08a.14.14,0,0,1,.14-.14H57a.14.14,0,0,1,.14.14v8a.14.14,0,0,1-.14.14H55.38a.14.14,0,0,1-.14-.14V5.91H52.39V9.05a.14.14,0,0,1-.14.14H50.62a.14.14,0,0,1-.14-.14v-8A.14.14,0,0,1,50.62.94Z"/><path class="cls-1" d="M58.75.94h4.91a.14.14,0,0,1,.14.14V2.33a.14.14,0,0,1-.14.14h-3V4.34h3a.15.15,0,0,1,.14.15V5.7a.14.14,0,0,1-.14.14h-3V7.66h3a.14.14,0,0,1,.14.14V9.05a.14.14,0,0,1-.14.14H58.75Z"/><path class="cls-1" d="M70.23,6.57,71.56,9a.14.14,0,0,1-.12.21H69.6a.16.16,0,0,1-.13-.07L68.22,6.9h-1V9.05a.14.14,0,0,1-.14.14H65.45a.15.15,0,0,1-.15-.14V.94h3.52a2.87,2.87,0,0,1,3,3A2.86,2.86,0,0,1,70.23,6.57Zm-3-1.22h1.31a1.33,1.33,0,0,0,1.32-1.43,1.33,1.33,0,0,0-1.32-1.43H67.21Z"/><path class="cls-1" d="M72.54,5.06a4.41,4.41,0,0,1,8.82,0,4.41,4.41,0,0,1-8.82,0Zm6.83,0a2.43,2.43,0,1,0-4.84,0,2.43,2.43,0,1,0,4.84,0Z"/><path class="cls-1" d="M82.46.94h4.91a.14.14,0,0,1,.14.14V2.33a.14.14,0,0,1-.14.14h-3V4.34h3a.15.15,0,0,1,.14.15V5.7a.14.14,0,0,1-.14.14h-3V7.66h3a.14.14,0,0,1,.14.14V9.05a.14.14,0,0,1-.14.14H82.46Z"/><path class="cls-1" d="M88.4,6.49h1.72a.09.09,0,0,1,.1.09,1.26,1.26,0,0,0,1.34,1.34c.71,0,1.11-.33,1.11-.91s-.26-.77-1-1.06l-1.49-.58a2.28,2.28,0,0,1-1.67-2.25C88.51,1.67,89.65.7,91.44.7s3,1,3,2.52a.09.09,0,0,1-.1.1H92.64a.09.09,0,0,1-.09-.09,1,1,0,0,0-1.14-1.1c-.63,0-1,.32-1,.81s.32.74,1.13,1.07l1.37.55a2.31,2.31,0,0,1,1.66,2.32c0,1.54-1.2,2.55-3,2.55-2,0-3.2-1-3.24-2.84A.09.09,0,0,1,88.4,6.49Z"/><path class="cls-2" d="M5.9,12.12a.63.63,0,0,1-.8,0,.59.59,0,0,1,0-.8c.58-.54,1.83-1.27,2.46-1.91,0,0,.07,0,.11,0h2.58a1.49,1.49,0,0,0,1.49-1.48V2.83a1.49,1.49,0,0,0-1.49-1.49H2.83A1.49,1.49,0,0,0,1.34,2.83V7.92A1.56,1.56,0,0,0,1.86,9a1.52,1.52,0,0,0,1.05.43h.87a.56.56,0,0,1,.45.56.55.55,0,0,1-.34.56,3.79,3.79,0,0,1-.78,0h-.2A2.68,2.68,0,0,1,1,9.78,2.72,2.72,0,0,1,.19,7.92V2.83A2.64,2.64,0,0,1,2.83.19h7.39a2.64,2.64,0,0,1,2.64,2.64V7.92a2.64,2.64,0,0,1-2.64,2.64H7.86l-.8.66S6.52,11.66,5.9,12.12Z"/><path class="cls-3" d="M5.48,12.46a.74.74,0,0,1-.52-.2.93.93,0,0,1-.23-.6.67.67,0,0,1,.21-.47A11.06,11.06,0,0,1,6,10.35,12,12,0,0,0,7.4,9.28a.23.23,0,0,1,.22-.06h2.6a1.3,1.3,0,0,0,1.3-1.29V2.83a1.3,1.3,0,0,0-1.3-1.3H2.83a1.3,1.3,0,0,0-1.3,1.3V7.92A1.47,1.47,0,0,0,2,8.84a1.32,1.32,0,0,0,.92.37h.87a.61.61,0,0,1,.4.2.77.77,0,0,1,.24.55A.73.73,0,0,1,4,10.7a2.79,2.79,0,0,1-.73.05H2.91a2.86,2.86,0,0,1-2-.83,2.87,2.87,0,0,1-.91-2V2.83A2.83,2.83,0,0,1,2.83,0h7.39a2.83,2.83,0,0,1,2.83,2.83V7.92a2.83,2.83,0,0,1-2.83,2.83H7.93l-.75.61s-.55.45-1.16.91H6A.89.89,0,0,1,5.48,12.46ZM7.62,9.6a13.74,13.74,0,0,1-1.36,1.06,10.69,10.69,0,0,0-1.06.8.27.27,0,0,0-.09.21.51.51,0,0,0,.12.32.47.47,0,0,0,.56,0h0l1.15-.9.85-.7h2.43a2.45,2.45,0,0,0,2.45-2.45V2.83A2.45,2.45,0,0,0,10.22.38H2.83A2.45,2.45,0,0,0,.38,2.83V7.92a2.46,2.46,0,0,0,.8,1.73,2.46,2.46,0,0,0,1.73.72h.32a2.85,2.85,0,0,0,.61,0c.07,0,.2-.13.2-.38a.4.4,0,0,0-.26-.37H2.91A1.72,1.72,0,0,1,1.72,9.1a1.77,1.77,0,0,1-.57-1.18V2.83A1.68,1.68,0,0,1,2.83,1.15h7.39A1.68,1.68,0,0,1,11.9,2.83V7.92a1.68,1.68,0,0,1-1.68,1.67H7.62Z"/><path class="cls-1" d="M8,3a2.41,2.41,0,0,0-1.56.62A2.37,2.37,0,0,0,4.92,3,1.65,1.65,0,0,0,3.36,4.67,1.8,1.8,0,0,0,3.92,5.9c.54.54,2.28,2,2.28,2a.36.36,0,0,0,.55,0S8.48,6.45,9,5.91a1.83,1.83,0,0,0,.57-1.24A1.65,1.65,0,0,0,8,3Z"/></g></g></svg>